<svg width="25" height="25" viewBox="0 0 25 25" fill="none" xmlns="http://www.w3.org/2000/svg">
<path d="M15.4622 20.8333H6.77051C5.33405 20.8333 4.16634 19.6655 4.16634 18.2291C4.16634 16.7926 5.33405 15.6249 6.77051 15.6249H14.0622C16.0726 15.6249 17.708 13.9895 17.708 11.9791C17.708 9.96867 16.0726 8.33325 14.0622 8.33325H8.99863C8.61608 9.08313 8.14235 9.78287 7.58822 10.4166H14.0622C14.9236 10.4166 15.6247 11.1176 15.6247 11.9791C15.6247 12.8405 14.9236 13.5416 14.0622 13.5416H6.77051C4.18613 13.5416 2.08301 15.6447 2.08301 18.2291C2.08301 20.8135 4.18613 22.9166 6.77051 22.9166H16.7632C16.2521 22.2736 15.8156 21.5747 15.4622 20.8333ZM5.20801 2.08325C3.48509 2.08325 2.08301 3.48534 2.08301 5.20825C2.08301 8.52909 5.20801 10.4166 5.20801 10.4166C5.20801 10.4166 8.33301 8.52804 8.33301 5.20825C8.33301 3.48534 6.93092 2.08325 5.20801 2.08325ZM5.20801 6.77075C5.00275 6.77068 4.79951 6.73019 4.60991 6.65158C4.4203 6.57296 4.24803 6.45777 4.10294 6.31259C3.95785 6.1674 3.84277 5.99505 3.76429 5.80539C3.6858 5.61573 3.64544 5.41247 3.64551 5.20721C3.64558 5.00195 3.68607 4.79872 3.76468 4.60911C3.8433 4.4195 3.95849 4.24723 4.10367 4.10214C4.24886 3.95705 4.42121 3.84197 4.61087 3.76349C4.80053 3.685 5.00379 3.64464 5.20905 3.64471C5.62359 3.64485 6.02109 3.80966 6.31412 4.10288C6.60714 4.3961 6.77169 4.79371 6.77155 5.20825C6.77141 5.62279 6.6066 6.0203 6.31338 6.31332C6.02016 6.60635 5.62255 6.77089 5.20801 6.77075Z" fill="white"/>
<path d="M19.792 14.5833C18.0691 14.5833 16.667 15.9853 16.667 17.7083C16.667 21.0291 19.792 22.9166 19.792 22.9166C19.792 22.9166 22.917 21.028 22.917 17.7083C22.917 15.9853 21.5149 14.5833 19.792 14.5833ZM19.792 19.2708C19.5867 19.2707 19.3835 19.2302 19.1939 19.1516C19.0043 19.073 18.832 18.9578 18.6869 18.8126C18.5418 18.6674 18.4268 18.4951 18.3483 18.3054C18.2698 18.1157 18.2294 17.9125 18.2295 17.7072C18.2296 17.502 18.2701 17.2987 18.3487 17.1091C18.4273 16.9195 18.5425 16.7472 18.6877 16.6021C18.8328 16.457 19.0052 16.342 19.1949 16.2635C19.3845 16.185 19.5878 16.1446 19.793 16.1447C20.2076 16.1448 20.6051 16.3097 20.8981 16.6029C21.1911 16.8961 21.3557 17.2937 21.3555 17.7083C21.3554 18.1228 21.1906 18.5203 20.8974 18.8133C20.6041 19.1063 20.2065 19.2709 19.792 19.2708Z" fill="white"/>
</svg>
