<svg width="46" height="34" viewBox="0 0 46 34" fill="none" xmlns="http://www.w3.org/2000/svg">
<path d="M41.7502 32.1875C41.7502 32.6019 41.5855 32.9993 41.2925 33.2923C40.9995 33.5854 40.6021 33.75 40.1877 33.75H12.0627C11.6483 33.75 11.2508 33.5854 10.9578 33.2923C10.6648 32.9993 10.5002 32.6019 10.5002 32.1875C10.5002 31.7731 10.6648 31.3756 10.9578 31.0826C11.2508 30.7896 11.6483 30.625 12.0627 30.625H40.1877C40.6021 30.625 40.9995 30.7896 41.2925 31.0826C41.5855 31.3756 41.7502 31.7731 41.7502 32.1875ZM38.6252 9.53122H28.0392L19.6603 0.410127C19.589 0.330415 19.5017 0.26661 19.4042 0.222863C19.3066 0.179117 19.2009 0.15641 19.0939 0.156221H15.7931C15.4215 0.151099 15.0542 0.237499 14.7239 0.407804C14.3935 0.578109 14.1101 0.827086 13.8986 1.13278C13.6787 1.43225 13.5338 1.78007 13.476 2.14708C13.4182 2.5141 13.4493 2.88962 13.5666 3.24216L15.6759 9.53122H10.8713L7.19938 5.11716C7.12391 5.03091 7.0308 4.96186 6.92634 4.91469C6.82189 4.86752 6.70853 4.84332 6.59391 4.84372H3.23454C2.86765 4.8422 2.50545 4.92613 2.17662 5.08885C1.84778 5.25157 1.56135 5.48862 1.34001 5.78122C1.12304 6.0745 0.978156 6.41474 0.91708 6.77441C0.856005 7.13408 0.880452 7.50307 0.988445 7.85153L3.72282 17.0117C4.15034 18.4656 5.03862 19.7412 6.25391 20.6465C7.46919 21.5518 8.9457 22.0377 10.4611 22.0312H44.8752C45.0824 22.0312 45.2811 21.9489 45.4276 21.8024C45.5741 21.6559 45.6564 21.4572 45.6564 21.25V16.5625C45.6564 14.6977 44.9156 12.9092 43.597 11.5906C42.2784 10.272 40.49 9.53122 38.6252 9.53122Z" fill="white"/>
</svg>
