<svg width="50" height="50" viewBox="0 0 50 50" fill="none" xmlns="http://www.w3.org/2000/svg">
<path d="M25.7954 29.8959C25.8503 30.1199 26.0043 30.3158 26.2239 30.4408C26.4434 30.5657 26.7105 30.6095 26.9668 30.5625H26.9597L42.8121 27.5459C42.9402 27.522 43.0614 27.4756 43.1682 27.4093C43.2751 27.343 43.3654 27.2583 43.4335 27.1605L43.4359 27.1563C43.5075 27.0573 43.5557 26.9467 43.5778 26.8312C43.5999 26.7156 43.5954 26.5974 43.5645 26.4834L43.5668 26.4896C39.2502 13.6375 30.5526 3.98962 19.6883 -0.010376H19.5954C19.4472 -0.0104072 19.3009 0.0187255 19.1674 0.0748654C19.0338 0.131005 18.9163 0.212714 18.8237 0.313944C18.7312 0.415173 18.6658 0.53333 18.6324 0.659667C18.5991 0.786003 18.5986 0.917284 18.6311 1.04379L18.6287 1.03754L25.7954 29.8959ZM10.4645 33.6875L22.9859 31.3167C23.2404 31.2688 23.4634 31.1357 23.6073 30.9459L23.6097 30.9417C23.6839 30.8481 23.7338 30.7414 23.756 30.6291C23.7782 30.5169 23.7722 30.4017 23.7383 30.2917L23.7406 30.298L19.7526 14.2292C19.7144 14.0597 19.6173 13.9046 19.4745 13.7852C19.3317 13.6659 19.1502 13.5881 18.9549 13.5625H18.9502C18.9074 13.5531 18.8634 13.5482 18.8192 13.548H18.7835H18.7859C18.6142 13.5479 18.4454 13.5871 18.2963 13.6616C18.1472 13.7361 18.023 13.8435 17.9359 13.973L17.9335 13.9771L17.6549 14.3938C13.9454 19.9063 10.7287 24.675 9.27398 32.7167C9.24994 32.8547 9.26397 32.9957 9.31492 33.128C9.36586 33.2603 9.45224 33.38 9.56684 33.4771C9.69111 33.5674 9.83667 33.6326 9.99309 33.6679C10.1495 33.7032 10.3129 33.7077 10.4716 33.6813H10.4645V33.6875ZM9.25255 42.4625C9.45342 42.4593 9.6462 42.3927 9.79541 42.275L10.3668 41.775C11.4485 40.8349 12.9113 40.3072 14.4359 40.3072C15.9605 40.3072 17.4233 40.8349 18.5049 41.775L19.0764 42.275C19.2138 42.3944 19.3994 42.4618 19.593 42.4625H19.6168C19.8177 42.4593 20.0105 42.3927 20.1597 42.275L20.7668 41.7438C21.8445 40.8133 23.2981 40.2923 24.8121 40.2938C26.3978 40.2938 27.8311 40.8542 28.874 41.7584L29.4311 42.2459C29.5765 42.3694 29.7691 42.4414 29.9716 42.448H29.974C30.1748 42.4448 30.3676 42.3782 30.5168 42.2605L31.074 41.773C32.1557 40.8328 33.6184 40.3051 35.143 40.3051C36.6677 40.3051 38.1304 40.8328 39.2121 41.773L39.7835 42.273C39.9168 42.3875 40.0978 42.4605 40.3002 42.4605H40.3264H40.324C40.5248 42.4573 40.7176 42.3907 40.8668 42.273L41.4383 41.773C41.9886 41.2919 42.6458 40.9147 43.3692 40.6646L43.4073 40.6521C43.4573 40.5646 43.5216 40.4959 43.5716 40.4084L49.4954 29.8396C49.5826 29.6792 49.6178 29.501 49.5972 29.3243C49.5766 29.1476 49.5011 28.9793 49.3787 28.8375L49.3811 28.8396C49.2541 28.6984 49.0843 28.5914 48.8911 28.5306C48.6978 28.4698 48.4889 28.4578 48.2883 28.4959L48.2954 28.4938L6.23351 36.4771C6.04483 36.514 5.86755 36.5862 5.7139 36.6889C5.56025 36.7915 5.4339 36.9222 5.34357 37.0717C5.25324 37.2213 5.2011 37.3862 5.19073 37.5551C5.18035 37.724 5.21201 37.8929 5.28351 38.05L5.28113 38.0417L6.62636 41.0292C7.45017 41.3313 8.15255 41.75 8.74303 42.2646C8.79614 42.3262 8.86486 42.3761 8.94378 42.4104C9.02269 42.4448 9.10965 42.4626 9.19779 42.4625L9.25732 42.4605H9.25494L9.25255 42.4625ZM48.6216 46.8563C47.8121 46.1542 46.7002 45.723 45.4716 45.723C44.243 45.723 43.1287 46.1563 42.3216 46.8584L41.7502 47.3584C41.3656 47.6908 40.8467 47.8772 40.3061 47.8772C39.7655 47.8772 39.2467 47.6908 38.8621 47.3584L38.2906 46.8584C37.4811 46.1563 36.3692 45.725 35.1406 45.725C33.9121 45.725 32.7978 46.1584 31.9906 46.8605L31.4335 47.348C31.0498 47.6794 30.5322 47.8651 29.993 47.8646H29.9787C29.7113 47.8649 29.4465 47.818 29.2003 47.7267C28.954 47.6354 28.7313 47.5016 28.5454 47.3334L27.9859 46.8438C27.1453 46.1152 26.0096 45.707 24.8264 45.7084C23.6026 45.7084 22.4954 46.1355 21.6835 46.8292L21.0764 47.3605C20.6918 47.6929 20.1729 47.8793 19.6323 47.8793C19.0917 47.8793 18.5729 47.6929 18.1883 47.3605L17.6168 46.8605C16.8073 46.1584 15.6954 45.725 14.4645 45.725C13.2335 45.725 12.1216 46.1584 11.3121 46.8605L10.7407 47.3605C10.3561 47.6929 9.83722 47.8793 9.2966 47.8793C8.75599 47.8793 8.23715 47.6929 7.85255 47.3605C6.89541 46.5355 5.57874 46.025 4.12636 46.025C2.67398 46.025 1.3597 46.5355 0.400173 47.3605C0.28643 47.4584 0.196096 47.5751 0.134434 47.7039C0.072772 47.8326 0.0410156 47.9708 0.0410156 48.1105C0.0410156 48.2501 0.072772 48.3883 0.134434 48.517C0.196096 48.6458 0.28643 48.7625 0.400173 48.8605C0.625731 49.0596 0.932119 49.1727 1.25255 49.175H1.26208C1.57764 49.1759 1.88071 49.0672 2.10493 48.873C2.36956 48.6401 2.68416 48.4554 3.03066 48.3293C3.37716 48.2033 3.74872 48.1384 4.12398 48.1384C4.49924 48.1384 4.8708 48.2033 5.2173 48.3293C5.5638 48.4554 5.8784 48.6401 6.14303 48.873C6.95255 49.573 8.06446 50.0063 9.29303 50.0063C10.5216 50.0063 11.6359 49.573 12.443 48.873L13.0145 48.373C13.3991 48.0405 13.9179 47.8541 14.4585 47.8541C14.9991 47.8541 15.518 48.0405 15.9026 48.373L16.474 48.873C17.274 49.573 18.3787 50.0063 19.6002 50.0063H19.6264H19.624H19.6311C20.8502 50.0063 21.9549 49.5792 22.7597 48.8855L23.3835 48.3542C23.7681 48.0218 24.2869 47.8353 24.8276 47.8353C25.3682 47.8353 25.887 48.0218 26.2716 48.3542L26.8287 48.8417C27.6335 49.55 28.7478 49.9875 29.9787 49.9896H30.0049C31.2264 49.9896 32.3311 49.5563 33.1287 48.8563L33.6859 48.3688C34.0705 48.0363 34.5893 47.8499 35.1299 47.8499C35.6706 47.8499 36.1894 48.0363 36.574 48.3688L37.1454 48.8688C37.9549 49.5688 39.0668 50.0021 40.2954 50.0021C41.524 50.0021 42.6383 49.5688 43.4454 48.8688L44.0168 48.3688C44.4014 48.0363 44.9203 47.8499 45.4609 47.8499C46.0015 47.8499 46.5203 48.0363 46.9049 48.3688C47.1216 48.5563 47.4192 48.6709 47.7502 48.6709H47.7764C47.9331 48.6708 48.0883 48.6429 48.2323 48.5889C48.3764 48.5348 48.5064 48.4557 48.6145 48.3563C48.7295 48.2593 48.821 48.143 48.8836 48.0144C48.9461 47.8858 48.9785 47.7475 48.9787 47.6078C48.979 47.468 48.947 47.3296 48.8849 47.2009C48.8227 47.0721 48.7315 46.9557 48.6168 46.8584L48.6216 46.8563Z" fill="white"/>
</svg>
